<?xml version="1.0" encoding="UTF-8" standalone="no"?>
<!-- Created with Inkscape (http://www.inkscape.org/) -->

<svg
   xmlns:dc="http://purl.org/dc/elements/1.1/"
   xmlns:cc="http://creativecommons.org/ns#"
   xmlns:rdf="http://www.w3.org/1999/02/22-rdf-syntax-ns#"
   xmlns:svg="http://www.w3.org/2000/svg"
   xmlns="http://www.w3.org/2000/svg"
   xmlns:sodipodi="http://sodipodi.sourceforge.net/DTD/sodipodi-0.dtd"
   xmlns:inkscape="http://www.inkscape.org/namespaces/inkscape"
   version="1.1"
   id="svg4680"
   xml:space="preserve"
   width="516.04303"
   height="751.97131"
   viewBox="0 0 361.23012 526.37992"
   sodipodi:docname="logo-left.svg"
   inkscape:version="0.92.0 r15299"
   inkscape:export-filename="C:\Users\joser\Documents\Web\jmaruiz.github.io\src\logo-left.png"
   inkscape:export-xdpi="96"
   inkscape:export-ydpi="96"><metadata
     id="metadata4686"><rdf:RDF><cc:Work
         rdf:about=""><dc:format>image/svg+xml</dc:format><dc:type
           rdf:resource="http://purl.org/dc/dcmitype/StillImage" /><dc:title></dc:title></cc:Work></rdf:RDF></metadata><defs
     id="defs4684"><clipPath
       clipPathUnits="userSpaceOnUse"
       id="clipPath4700"><path
         d="M 0,500 H 500 V 0 H 0 Z"
         id="path4698"
         inkscape:connector-curvature="0" /></clipPath><clipPath
       clipPathUnits="userSpaceOnUse"
       id="clipPath4724"><path
         d="M 0,500 H 500 V 0 H 0 Z"
         id="path4722"
         inkscape:connector-curvature="0" /></clipPath><clipPath
       clipPathUnits="userSpaceOnUse"
       id="clipPath4740"><path
         d="M 0,500 H 500 V 0 H 0 Z"
         id="path4738"
         inkscape:connector-curvature="0" /></clipPath><clipPath
       clipPathUnits="userSpaceOnUse"
       id="clipPath4752"><path
         d="m 368.145,274.748 -10.582,8.433 h -3.804 l 8.764,-5.952 -13.229,4.795 -4.96,0.166 9.26,-3.638 -15.544,1.357 -6.283,-1.357 7.441,-0.579 -4.879,-1.819 -8.763,-4.878 -2.315,-4.795 -1.406,-3.803 29.847,0.991 15.627,-10.004 10.565,-3.665 c 0,0 5.419,14.772 5.198,15.102 v 0 c -0.22,0.331 -2.701,6.174 -2.701,6.174 v 0 l -7.275,6.118 0.827,-6.118 -7.773,10.418 -4.298,1.487 z"
         id="path4750"
         inkscape:connector-curvature="0" /></clipPath><clipPath
       clipPathUnits="userSpaceOnUse"
       id="clipPath4764"><path
         d="m 248.992,307.158 -16.205,3.804 4.465,-2.564 -23.729,2.232 -7.194,-2.314 10.584,-0.909 -16.371,-1.158 -8.847,-5.539 v -7.111 l 19.926,-4.299 c 0,0 16.867,3.473 17.28,3.473 v 0 c 0.414,0 27.201,-3.473 27.201,-3.473 v 0 l 20.256,-8.764 8.516,1.736 -2.729,12.32 -0.739,1.322 -8.355,9.756 1.736,-8.351 -8.599,10.335 1.572,-5.374 -10.005,6.449 c 0,0 2.812,-4.299 2.564,-4.381 v 0 c -0.249,-0.083 -16.453,7.027 -16.453,7.027 v 0 z"
         id="path4762"
         inkscape:connector-curvature="0" /></clipPath></defs><sodipodi:namedview
     pagecolor="#ffffff"
     bordercolor="#666666"
     borderopacity="1"
     objecttolerance="10"
     gridtolerance="10"
     guidetolerance="10"
     inkscape:pageopacity="0"
     inkscape:pageshadow="2"
     inkscape:window-width="1920"
     inkscape:window-height="1017"
     id="namedview4682"
     showgrid="false"
     inkscape:zoom="0.85595276"
     inkscape:cx="266.20077"
     inkscape:cy="361.3699"
     inkscape:window-x="-8"
     inkscape:window-y="-8"
     inkscape:window-maximized="1"
     inkscape:current-layer="g4688"
     showborder="true"
     scale-x="0.7"
     fit-margin-top="0"
     fit-margin-left="0"
     fit-margin-right="0"
     fit-margin-bottom="0" /><g
     id="g4688"
     inkscape:groupmode="layer"
     inkscape:label="jose_logo"
     transform="matrix(1.3333333,0,0,-1.3333333,-4.4306634,663.29363)"><g
       id="g4782"
       transform="rotate(-16.694343,291.95931,715.97619)"><g
         transform="matrix(-1,0,0,1,500.30167,17.967783)"
         id="g4734"><g
           clip-path="url(#clipPath4740)"
           id="g4736"><g
             transform="translate(250.9686,96.563)"
             id="g4742"><path
               inkscape:connector-curvature="0"
               id="path4744"
               style="fill:#2f302f;fill-opacity:1;fill-rule:nonzero;stroke:none"
               d="m 0,0 v -5.34 l -2.269,-4.832 -4.005,-4.513 -8.01,-2.336 -4.772,1.669 -6.579,2.724 -5.907,4.793 -2.766,2.693 -3.338,2.312 -3.845,4.165 -2.733,3.511 -2.767,3.831 -1.692,4.733 -0.484,5.119 5.34,5.661 4.178,4.512 5.34,4.512 8.504,5.34 3.164,0.828 4.512,1.842 2.003,1.161 3.879,0.681 3.63,1.155 5.093,1.168 6.675,0.668 c 0,0 2.191,0.939 3.063,0.962 0.644,0.095 3.312,0.462 5.494,0.745 2.51,0.326 3.872,0.137 4.138,0.046 0.494,-0.16 3.836,-1.434 3.836,-1.434 l 4.543,-0.345 4.348,0.629 3.546,-0.057 2.329,-0.604 2.184,-1.192 0.978,-0.419 4.842,-1.991 3.193,-1.564 3.337,-3.004 3.643,-5.122 4.512,-8.17 -0.501,-17.445 -2.753,-8.677 -4.262,-5.597 -5.834,-3.832 -7.182,-3.337 -6.341,-2.67 -5.34,1.509 -3.671,5.5 -1.001,4.005 3.671,4.005 2.336,-0.39 2.496,-0.612 2.901,-0.134 2.449,1.371 1.499,3.436 -0.246,3.272 -1.263,2.735 -8.998,3.511 -7.342,1.829 -9.518,-0.841 -9.011,-1.161 -3.671,-3.511 c 0,0 -0.494,-4.499 -0.334,-4.993 m 73.716,31.918 c -0.56,0.667 -4.084,8.251 -4.084,8.251 l -5.233,6.568 -3.857,3.367 -3.442,3.435 -3.272,3.273 -4.036,4.691 -3.855,4.258 -2.79,2.109 -5.34,-1.549 -3.778,0.548 -3.004,1.561 -4.672,4.339 H 14.231 L 2.884,70.94 -21.813,61.596 -41.504,51.583 -54.52,40.57 l -8.677,-8.677 -23.029,4.004 -15.018,17.689 -9.345,30.037 -2.67,34.042 1.669,24.029 2.002,20.358 12.349,30.371 10.012,22.361 12.683,13.35 8.009,7.676 -6.341,7.676 -3.337,13.349 5.006,15.686 9.678,14.018 9.345,5.006 2.337,-3.004 6.341,4.339 10.012,3.337 h 9.345 l 13.016,-4.005 6.675,4.005 H 5.22 l 12.015,-7.342 9.011,-8.344 13.016,-7.008 20.025,-9.345 13.349,-8.01 10.68,-8.344 12.015,-1.001 h 10.346 l 9.345,1.001 5.006,-22.36 2.002,-20.025 -2.002,-16.353 -2.336,-15.686 8.009,14.351 3.004,23.695 v 27.034 l -2.67,12.682 2.67,-2.67 -3.671,11.681 3.671,-2.336 -5.34,11.013 -3.337,9.345 5.006,-2.002 -2.67,5.673 -7.009,5.006 3.672,0.668 -4.673,8.677 -6.341,5.674 1.001,4.338 c 0,0 -0.333,6.675 -1.335,6.342 -1.001,-0.334 -5.006,-2.337 -5.006,-2.337 l -0.334,7.343 -2.336,-3.338 -4.672,-0.333 -3.338,3.671 2.003,5.34 h -2.003 l -5.34,-2.003 -0.56,4.005 -4.112,0.441 0.668,4.125 -4.9,-2.003 -0.774,2.67 1.108,1.669 -4.886,-0.895 -2.229,7.116 c 0,0 -3.565,-4.446 -3.899,-4.005 -0.333,0.454 -2.002,3.124 -2.002,3.124 0,0 -2.002,-1.896 -2.55,-1.896 -0.561,0 -3.671,2.777 -3.671,2.777 0,0 1.215,4.899 0.107,4.792 -1.108,-0.12 -5.113,-3.671 -5.447,-3.337 -0.334,0.334 -3.004,3.337 -3.004,3.337 l -5.673,1.549 c 0,0 -1.228,-4.112 -1.789,-4.112 -0.547,0 -4.886,2.443 -4.886,2.443 l -3.564,-0.107 -0.334,5.34 -3.565,-3.778 -4.672,0.668 c 0,0 -0.214,2.777 -0.334,2.336 -0.107,-0.454 -2.109,-2.336 -2.109,-2.336 0,0 -0.774,4.779 -1.335,4.445 -0.561,-0.333 -3.337,-6.234 -3.337,-6.234 l -0.895,3.231 -2.55,-3.338 c 0,0 -2.456,2.003 -2.79,2.23 -0.333,0.213 -1.548,2.443 -2.109,2.336 -0.561,-0.12 -2.83,-2.457 -2.83,-2.457 0,0 -1.615,1.456 -1.949,1.562 -0.334,0.107 -2.79,-0.56 -2.79,-0.56 0,0 -1.669,2.336 -1.669,2.79 0,0.44 0.454,2.777 0.12,2.67 -0.334,-0.12 -1.562,-2.003 -1.562,-2.003 l -2.67,-0.333 -1.228,1.668 -0.213,-3.337 -2.564,-0.668 -2.002,0.441 c 0,0 -1.896,1.669 -1.896,2.002 0,0.334 -1.882,1.669 -1.882,1.669 0,0 -2.456,-3.337 -2.897,-3.778 -0.441,-0.454 -3.444,-1.896 -3.444,-1.896 l -2.79,-1.895 -1.883,2.002 c 0,0 -1.561,-1.548 -2.002,-1.442 -0.454,0.107 -4.566,2.337 -4.566,2.337 l -3.23,-1.896 -1.669,-2.55 -2.109,2.884 -1.335,-3.338 c 0,0 -1.669,2.897 -1.896,2.23 -0.214,-0.668 -2.109,-5.674 -2.109,-5.674 l -3.231,1.896 -1.108,1.108 -3.23,2.229 c 0,0 -1.669,-6.127 -1.776,-6.675 -0.107,-0.56 -1.228,-3.003 -1.562,-3.337 -0.334,-0.334 -2.777,-1.669 -2.777,-1.669 l -3.003,0.214 0.774,-2.216 -2.777,1.215 c 0,0 -1.895,-1.549 -1.562,-2.443 0.334,-0.895 0,-2.897 0,-2.897 l -3.778,2.336 -0.106,-3.111 -2.791,-1.335 -3.217,-1.228 -5.233,0.561 -3.004,0.334 -0.774,-7.236 -2.79,-2.109 -6.888,-2.336 -4.459,-3.338 -1.001,-3.778 -4.339,-2.229 -7.342,-8.784 -4.78,-5.233 4.112,-1.562 -2.67,-3.111 -5.006,-3.003 -2.443,-2.564 3.778,-2.776 -0.668,-1.776 -3.11,-4.792 -3.671,-7.89 -5.233,-10.012 v -3.672 l -1.215,-3.898 -1.001,-4.338 -3.672,-3.565 3.111,0.334 0.107,-4.552 v -4.005 l -1.335,-9.799 0.667,-6.221 -2.55,-1.789 5.554,-4.672 1.325,-1.193 0.983,-1.025 1.087,-0.297 1.171,0.179 3.11,0.12 -1.215,-4.673 3.217,-0.454 0.561,-5.166 0.107,-8.063 2.456,-6.902 -0.787,-8.57 -0.668,-10.453 -1.882,-12.456 -2.123,-10.799 -1.668,-7.116 -1.002,-14.244 -0.333,-12.349 V 88.402 l 1.895,-15.352 3.231,-11.348 3.217,-15.232 3.124,-10.799 4.445,-11.348 12.232,-15.511 8.692,-16.66 11.127,-10.8 13.091,-10.8 15.381,-7.854 15.382,-4.254 19.961,-2.243 20.05,-0.842 23.482,6.781 5.314,3.422 5.727,5.236 5.728,5.072 5.727,6.218 4.745,5.318 6.013,9.884 4.566,11.468 c 0,0 0.477,11.375 0.584,11.708" /></g></g></g><g
         transform="matrix(-1,0,0,1,500.30167,17.967783)"
         id="g4746"><g
           clip-path="url(#clipPath4752)"
           id="g4748"><g
             transform="translate(323.8173,264.8908)"
             id="g4754"><path
               inkscape:connector-curvature="0"
               id="path4756"
               style="fill:#2f302f;fill-opacity:1;fill-rule:nonzero;stroke:none"
               d="m 0,0 16.465,2.002 10.568,1.002 13.016,-3.672 7.009,-10.679 5.006,-1.669 2.002,9.011 v 6.317 l -3.003,6.699 -6.675,3.671 -13.016,2.336 H 19.023 L 8.677,12.682 3.004,5.674 Z" /></g></g></g><g
         transform="matrix(-1,0,0,1,500.30167,17.967783)"
         id="g4758"><g
           clip-path="url(#clipPath4764)"
           id="g4760"><g
             transform="translate(263.3839,305.385)"
             id="g4766"><path
               inkscape:connector-curvature="0"
               id="path4768"
               style="fill:#2f302f;fill-opacity:1;fill-rule:nonzero;stroke:none"
               d="m 0,0 5.34,-2.225 3.88,-1.849 4.13,-2.378 4.672,-7.12 v -7.788 l -9.79,1.78 -15.167,7.343 -12.867,3.56 -16.465,1.335 -10.235,-2.003 -12.014,-2.892 -4.895,1.112 -7.788,2.67 0.223,2.448 8.677,5.673 16.354,4.116 h 25.809 z" /></g></g></g></g></g></svg>